# xmcd
#
# Track frame offsets:
#	150
#	18482
#	31192
#	47255
#	61672
#	74857
#	93495
#	103737
#	120362
#	143762
#	165237
#	188245
#	209760
#	233715
#	254915
#	272942
#	288397
#	311965
#	328977
#
# Disc length: 4622
#
# Revision: 2
# Processed by: cddbd v1.5.1PL0 Copyright (c) Steve Scherf et al.
# Submitted via: DiscPlay 4.0.4
# Normalized: r1:TDELIM( - )
#
DISCID=22120c13
DTITLE=Les Inrockuptibles - Un Hiver 97
DYEAR=1900
DGENRE=
TTITLE0=Weezer - El Scorcho
TTITLE1=Garageland - Fingerpops
TTITLE2=Geneva - No One Speaks
TTITLE3=Fountains Of Wayne - Sink To The Bottom
TTITLE4=The Married Monk - Coco Clown
TTITLE5=Donovan - Please Don't Bend
TTITLE6=Nick Cave and Scott Walker - I Threw It All Away
TTITLE7=Elysian Fields - Star
TTITLE8=Roger Quigley - A Kind Of Loving
TTITLE9=Beth Orton - She Cries Your Name
TTITLE10=Lamb - Cotton Wool
TTITLE11=Aphex Twin - Girl/Boy Song
TTITLE12=Archive - Londinium
TTITLE13=Dj Cam - Innervisions
TTITLE14=Prodigy - Breathe
TTITLE15=Dj Shadow - Stem (L.P.)
TTITLE16=Radar Bros. - Stay
TTITLE17=Joseph Arthur - Mercedes (radio edit)
TTITLE18=Mundy - To You I Bestow
EXTD=
EXTT0=
EXTT1=
EXTT2=
EXTT3=
EXTT4=
EXTT5=
EXTT6=
EXTT7=
EXTT8=
EXTT9=
EXTT10=
EXTT11=
EXTT12=
EXTT13=
EXTT14=
EXTT15=
EXTT16=
EXTT17=
EXTT18=
PLAYORDER=
